Coordinates
version=1
nRows=11
nColumns=40
inDegrees=yes

Units are S.I. units (second, meters, Newtons, ...)
Angles are in degrees.

endheader
time	pelvis_tilt	pelvis_list	pelvis_rotation	pelvis_tx	pelvis_ty	pelvis_tz	hip_flexion_r	hip_adduction_r	hip_rotation_r	knee_angle_r	knee_angle_r_beta	ankle_angle_r	subtalar_angle_r	mtp_angle_r	hip_flexion_l	hip_adduction_l	hip_rotation_l	knee_angle_l	knee_angle_l_beta	ankle_angle_l	subtalar_angle_l	mtp_angle_l	lumbar_extension	lumbar_bending	lumbar_rotation	arm_flex_r	arm_add_r	arm_rot_r	elbow_flex_r	pro_sup_r	wrist_flex_r	wrist_dev_r	arm_flex_l	arm_add_l	arm_rot_l	elbow_flex_l	pro_sup_l	wrist_flex_l	wrist_dev_l
     22.46500000	     -3.82648407	     -2.51455117	      0.22371717	      1.12042498	      0.92138433	      0.42736550	     28.49392789	     -3.53192864	    -15.55675919	     13.73734812	     13.73734812	      2.69704810	      2.04588862	      9.89479703	     -2.99689163	     -2.78952287	    -15.45198296	     11.08937535	     11.08937535	     18.26545999	     -0.23428949	     -6.00173993	     -9.25960774	      3.90924200	      1.94692338	    -14.31358332	    -12.14292902	      4.41858991	     33.63025617	     46.06386426	      0.00000000	      0.00000000	     30.54091584	    -16.14173920	      0.75008866	     67.65660101	     46.92461690	      0.00000000	      0.00000000
     22.47650000	     -3.89595431	     -2.51828211	      0.28528719	      1.12190182	      0.91946872	      0.42915482	     28.26022019	     -3.23088353	    -16.01446095	     13.11783491	     13.11783491	      2.65696180	      2.48615148	     10.16188993	     -3.71852185	     -2.95046959	    -15.59156160	     11.04833750	     11.04833750	     18.94971223	      0.25000642	     -5.59234525	     -9.16665277	      3.91603209	      1.76261009	    -15.63152923	    -12.40538678	      4.28462810	     35.90955182	     45.95143581	      0.00000000	      0.00000000	     29.80381208	    -16.35090407	     -0.34137263	     71.88606519	     47.09426835	      0.00000000	      0.00000000
     22.48800000	     -4.00261765	     -2.64820401	      0.37050785	      1.12341207	      0.91760373	      0.43108942	     28.04474413	     -2.80575316	    -16.17367659	     12.85297213	     12.85297213	      2.27613432	      2.29259846	      9.76287591	     -4.25850480	     -3.28345849	    -15.48985185	     11.25950582	     11.25950582	     19.51585715	      0.26941545	     -5.41777056	     -8.93726377	      4.05480874	      2.17486089	    -16.54022978	    -12.47574779	      4.41328004	     36.32903055	     45.91420280	      0.00000000	      0.00000000	     29.93645817	    -15.88189184	     -0.74775369	     74.00220555	     47.17057395	      0.00000000	      0.00000000
     22.49950000	     -4.06432490	     -2.76227896	      0.51542742	      1.12517087	      0.91574489	      0.43308527	     27.82015271	     -2.44846541	    -16.11048982	     12.98872601	     12.98872601	      0.79394093	      1.38582843	      5.63008517	     -4.69866475	     -3.71403848	    -15.65473616	     11.85834217	     11.85834217	     20.68103293	      0.90810935	     -4.11676684	     -8.74874569	      4.19400173	      1.59547868	    -17.23405006	    -13.03278449	      5.48887486	     38.31280250	     45.74068455	      0.00000000	      0.00000000	     28.81774090	    -16.09727722	     -2.33677295	     77.64819061	     47.41262621	      0.00000000	      0.00000000
     22.51100000	     -4.21395718	     -2.91489440	      0.62125455	      1.12676320	      0.91398108	      0.43517090	     27.96638790	     -2.16906540	    -15.91032806	     13.97652849	     13.97652849	      0.46158131	      0.47161475	      4.69442271	     -4.96239496	     -4.16077186	    -15.45516838	     12.50816577	     12.50816577	     21.15855137	      0.65737237	     -4.10334756	     -8.46939181	      4.35570641	      2.01452506	    -17.78031242	    -13.17258416	      5.48218580	     38.64212302	     45.72106271	      0.00000000	      0.00000000	     28.73446761	    -15.67206355	     -2.54537812	     79.64783274	     47.47158497	      0.00000000	      0.00000000
     22.52250000	     -4.20481669	     -3.17973819	      0.76774878	      1.12864525	      0.91259343	      0.43734660	     27.79227679	     -1.73247150	    -15.48361536	     14.84488157	     14.84488157	     -0.73153490	     -1.12722351	      1.28226115	     -5.28167851	     -4.81729222	    -15.40760766	     13.44396185	     13.44396185	     21.88894875	      0.75064219	     -3.59933394	     -8.41440720	      4.68973717	      1.48321476	    -17.98256387	    -13.57708725	      5.38382053	     40.24095304	     45.65411670	      0.00000000	      0.00000000	     27.33031903	    -15.92964568	     -3.76121501	     83.23603561	     47.63810633	      0.00000000	      0.00000000
     22.53400000	     -4.03706774	     -3.49480778	      0.90413166	      1.13070618	      0.91187282	      0.43951654	     27.54258007	     -1.39218230	    -15.48702546	     16.17493967	     16.17493967	     -0.64540851	     -1.64995387	      0.72776545	     -5.84278185	     -5.47738821	    -15.14673112	     14.20083301	     14.20083301	     22.04105982	      0.37062731	     -3.67289506	     -8.37950835	      5.13086443	      1.82126047	    -17.98171128	    -13.83278803	      5.40830050	     40.20930461	     45.65356577	      0.00000000	      0.00000000	     27.02541893	    -15.49248008	     -3.75682200	     83.72546667	     47.64732174	      0.00000000	      0.00000000
     22.54550000	     -4.19050926	     -3.55310569	      1.04152020	      1.13232842	      0.91056571	      0.44186585	     27.84368042	     -1.24402778	    -14.70857678	     17.75724737	     17.75724737	     -1.47666221	     -3.81363248	     -2.66138848	     -5.43266658	     -6.05964454	    -14.85950894	     16.11536016	     16.11536016	     22.31761135	     -0.16179777	     -3.95885749	     -8.19158527	      5.14564562	      1.42490116	    -17.75262039	    -14.28482595	      5.98631772	     41.20420044	     45.57961137	      0.00000000	      0.00000000	     25.41098673	    -15.39303113	     -5.35160649	     87.72669792	     47.84915640	      0.00000000	      0.00000000
     22.55700000	     -4.17471232	     -3.73195015	      1.17466167	      1.13410520	      0.91005205	      0.44424549	     27.88079814	     -1.04095237	    -14.37292023	     19.35466094	     19.35466094	     -1.14796037	     -4.79215031	     -3.52756516	     -5.19735479	     -6.73740646	    -14.38371634	     17.99456847	     17.99456847	     22.11733752	     -1.08249369	     -4.54975120	     -8.09670655	      5.37566752	      1.70776311	    -17.39407267	    -14.57267760	      6.32959935	     41.25724207	     45.56058404	      0.00000000	      0.00000000	     24.66284228	    -14.90354439	     -5.63496903	     89.00163614	     47.90058527	      0.00000000	      0.00000000
     22.56850000	     -3.94328151	     -3.89880824	      1.30937969	      1.13591416	      0.91024580	      0.44669567	     27.59175213	     -0.86466157	    -14.25866808	     20.81803093	     20.81803093	     -0.52375439	     -5.40664484	     -4.05626053	     -5.00450876	     -7.45220676	    -13.87749478	     20.20536265	     20.20536265	     21.69728712	     -2.08682213	     -5.13339047	     -8.27705445	      5.59051176	      2.09836207	    -16.84442341	    -14.84358848	      6.41194319	     41.32740595	     45.55685722	      0.00000000	      0.00000000	     24.01855849	    -14.45948121	     -5.76445871	     89.84043911	     47.92638489	      0.00000000	      0.00000000
     22.58000000	     -3.89997581	     -3.98816258	      1.44856211	      1.13749007	      0.91056886	      0.44916007	     27.41996214	     -0.70513908	    -13.92383374	     22.06951853	     22.06951853	      0.32465631	     -6.12667572	     -3.96990498	     -4.37933496	     -8.04051868	    -12.98785831	     22.62623239	     22.62623239	     19.96416103	     -4.19378922	     -7.88942003	     -8.29349614	      5.68742631	      1.42578670	    -15.35280643	    -15.25222414	      7.17069316	     41.18968928	     45.53111482	      0.00000000	      0.00000000	     21.73591660	    -14.41782334	     -7.20583635	     92.68764634	     48.08847195	      0.00000000	      0.00000000
